<svg width="192" height="192" viewBox="0 0 192 192" fill="none" xmlns="http://www.w3.org/2000/svg">
  <!-- Background -->
  <rect width="192" height="192" fill="#3b82f6" rx="24"/>
  
  <!-- Sudoku Grid -->
  <rect x="40" y="40" width="112" height="112" fill="#1e40af" rx="8"/>
  
  <!-- Grid Lines -->
  <g stroke="#ffffff" stroke-width="2" fill="none">
    <!-- Horizontal lines -->
    <line x1="48" y1="77" x2="144" y2="77"/>
    <line x1="48" y1="114" x2="144" y2="114"/>
    <line x1="48" y1="88" x2="144" y2="88"/>
    <line x1="48" y1="103" x2="144" y2="103"/>
    <line x1="48" y1="125" x2="144" y2="125"/>
    
    <!-- Vertical lines -->
    <line x1="77" y1="48" x2="77" y2="144"/>
    <line x1="114" y1="48" x2="114" y2="144"/>
    <line x1="88" y1="48" x2="88" y2="144"/>
    <line x1="103" y1="48" x2="103" y2="144"/>
    <line x1="125" y1="48" x2="125" y2="144"/>
  </g>
  
  <!-- Numbers -->
  <text x="62" y="68" fill="#ffffff" font-family="Arial, sans-serif" font-size="16" font-weight="bold">5</text>
  <text x="95" y="68" fill="#ffffff" font-family="Arial, sans-serif" font-size="16" font-weight="bold">8</text>
  <text x="73" y="98" fill="#ffffff" font-family="Arial, sans-serif" font-size="16" font-weight="bold">3</text>
  <text x="117" y="98" fill="#ffffff" font-family="Arial, sans-serif" font-size="16" font-weight="bold">1</text>
  <text x="51" y="119" fill="#ffffff" font-family="Arial, sans-serif" font-size="16" font-weight="bold">9</text>
  <text x="128" y="119" fill="#ffffff" font-family="Arial, sans-serif" font-size="16" font-weight="bold">6</text>
  <text x="84" y="139" fill="#ffffff" font-family="Arial, sans-serif" font-size="16" font-weight="bold">7</text>
  <text x="106" y="139" fill="#ffffff" font-family="Arial, sans-serif" font-size="16" font-weight="bold">2</text>
</svg> 